# xmcd
#
# Track frame offsets:
#	151
#	14608
#	29068
#
# Disc length: 583 seconds
#
# Revision: 0
# Processed by: cddbd v1.5.2PL0 Copyright (c) Steve Scherf et al.
# Submitted via: audiograbber 1.83.01
#
DISCID=22024503
DTITLE=The Lost Trailers - The Lost Trailers
DYEAR=2007
DGENRE=Country
TTITLE0=Holler Back
TTITLE1=Holler Back
TTITLE2=Holler Back
EXTD=
EXTT0=
EXTT1=
EXTT2=
PLAYORDER=
